<svg width="219" height="37" viewBox="0 0 219 37" fill="none" xmlns="http://www.w3.org/2000/svg">
<path fill-rule="evenodd" clip-rule="evenodd" d="M3.13307 34.4586C1.40988 34.4586 1.6082e-07 33.0487 1.49105e-07 31.3255L7.4635e-08 20.3719L7.88626 20.3719L7.88626 20.3598L12.6263 20.3598C13.8482 20.3285 14.8821 19.2632 14.8821 18.01C14.8821 16.7254 13.8168 15.6602 12.5323 15.6602L6.26614 15.6602L6.26614 15.6622L4.26149e-08 15.6622L2.13006e-08 12.5271C9.58529e-09 10.8039 1.40988 9.39404 3.13307 9.39404L12.5323 9.39404C14.9134 9.39404 16.9499 10.24 18.6104 11.9318C20.3023 13.5924 21.1482 15.6289 21.1482 18.01C21.1482 20.3598 20.3336 22.3963 18.6731 24.0568C17.0126 25.7173 15.0074 26.5946 12.6576 26.6259L6.26614 26.6259L6.26614 31.3255C6.26614 33.0487 4.85626 34.4586 3.13307 34.4586Z" fill="#02BC6B"/>
<path fill-rule="evenodd" clip-rule="evenodd" d="M25.0974 5.75781C28.5589 9.11995 30.3031 13.3073 30.3031 18.0673C30.3031 22.7473 28.6319 26.9307 25.2239 30.3034L20.3852 25.7508C22.5046 23.6533 23.545 21.128 23.545 18.0673C23.545 14.9832 22.4733 12.4619 20.303 10.3538L25.0974 5.75781Z" fill="#02897A"/>
<path fill-rule="evenodd" clip-rule="evenodd" d="M32.5055 -3.14562e-08C37.4912 4.97781 40 11.1499 40 18.2338C40 25.2071 37.5923 31.3753 32.6885 36.3638L28.0187 31.8009C31.6715 28.085 33.4614 23.5781 33.4614 18.2338C33.4614 12.8358 31.6112 8.33276 27.8787 4.60616L32.5055 -3.14562e-08Z" fill="#035B81"/>
<path fill-rule="evenodd" clip-rule="evenodd" d="M0 26.6523L6.26614 26.6523L6.26614 31.326C6.26614 33.0492 4.85626 34.459 3.13307 34.459C1.40988 34.459 4.34898e-08 33.0492 3.17744e-08 31.326L0 26.6523Z" fill="#028E37"/>
<path d="M65.48 29.21C63.94 29.21 62.56 28.96 61.34 28.46C60.12 27.96 59.14 27.22 58.4 26.24C57.68 25.26 57.3 24.08 57.26 22.7H62.72C62.8 23.48 63.07 24.08 63.53 24.5C63.99 24.9 64.59 25.1 65.33 25.1C66.09 25.1 66.69 24.93 67.13 24.59C67.57 24.23 67.79 23.74 67.79 23.12C67.79 22.6 67.61 22.17 67.25 21.83C66.91 21.49 66.48 21.21 65.96 20.99C65.46 20.77 64.74 20.52 63.8 20.24C62.44 19.82 61.33 19.4 60.47 18.98C59.61 18.56 58.87 17.94 58.25 17.12C57.63 16.3 57.32 15.23 57.32 13.91C57.32 11.95 58.03 10.42 59.45 9.32C60.87 8.2 62.72 7.64 65 7.64C67.32 7.64 69.19 8.2 70.61 9.32C72.03 10.42 72.79 11.96 72.89 13.94H67.34C67.3 13.26 67.05 12.73 66.59 12.35C66.13 11.95 65.54 11.75 64.82 11.75C64.2 11.75 63.7 11.92 63.32 12.26C62.94 12.58 62.75 13.05 62.75 13.67C62.75 14.35 63.07 14.88 63.71 15.26C64.35 15.64 65.35 16.05 66.71 16.49C68.07 16.95 69.17 17.39 70.01 17.81C70.87 18.23 71.61 18.84 72.23 19.64C72.85 20.44 73.16 21.47 73.16 22.73C73.16 23.93 72.85 25.02 72.23 26C71.63 26.98 70.75 27.76 69.59 28.34C68.43 28.92 67.06 29.21 65.48 29.21ZM85.647 24.65V29H83.037C81.177 29 79.727 28.55 78.687 27.65C77.647 26.73 77.127 25.24 77.127 23.18V16.52H75.087V12.26H77.127V8.18H82.257V12.26H85.617V16.52H82.257V23.24C82.257 23.74 82.377 24.1 82.617 24.32C82.857 24.54 83.257 24.65 83.817 24.65H85.647ZM87.4845 20.6C87.4845 18.88 87.8045 17.37 88.4445 16.07C89.1045 14.77 89.9945 13.77 91.1145 13.07C92.2345 12.37 93.4845 12.02 94.8645 12.02C96.0445 12.02 97.0745 12.26 97.9545 12.74C98.8545 13.22 99.5445 13.85 100.025 14.63V12.26H105.155V29H100.025V26.63C99.5245 27.41 98.8245 28.04 97.9245 28.52C97.0445 29 96.0145 29.24 94.8345 29.24C93.4745 29.24 92.2345 28.89 91.1145 28.19C89.9945 27.47 89.1045 26.46 88.4445 25.16C87.8045 23.84 87.4845 22.32 87.4845 20.6ZM100.025 20.63C100.025 19.35 99.6645 18.34 98.9445 17.6C98.2445 16.86 97.3845 16.49 96.3645 16.49C95.3445 16.49 94.4745 16.86 93.7545 17.6C93.0545 18.32 92.7045 19.32 92.7045 20.6C92.7045 21.88 93.0545 22.9 93.7545 23.66C94.4745 24.4 95.3445 24.77 96.3645 24.77C97.3845 24.77 98.2445 24.4 98.9445 23.66C99.6645 22.92 100.025 21.91 100.025 20.63ZM113.996 15.05C114.596 14.13 115.346 13.41 116.246 12.89C117.146 12.35 118.146 12.08 119.246 12.08V17.51H117.836C116.556 17.51 115.596 17.79 114.956 18.35C114.316 18.89 113.996 19.85 113.996 21.23V29H108.866V12.26H113.996V15.05ZM131.028 24.65V29H128.418C126.558 29 125.108 28.55 124.068 27.65C123.028 26.73 122.508 25.24 122.508 23.18V16.52H120.468V12.26H122.508V8.18H127.638V12.26H130.998V16.52H127.638V23.24C127.638 23.74 127.758 24.1 127.998 24.32C128.238 24.54 128.638 24.65 129.198 24.65H131.028ZM150.415 12.26V29H145.285V26.72C144.765 27.46 144.055 28.06 143.155 28.52C142.275 28.96 141.295 29.18 140.215 29.18C138.935 29.18 137.805 28.9 136.825 28.34C135.845 27.76 135.085 26.93 134.545 25.85C134.005 24.77 133.735 23.5 133.735 22.04V12.26H138.835V21.35C138.835 22.47 139.125 23.34 139.705 23.96C140.285 24.58 141.065 24.89 142.045 24.89C143.045 24.89 143.835 24.58 144.415 23.96C144.995 23.34 145.285 22.47 145.285 21.35V12.26H150.415ZM159.23 14.63C159.73 13.85 160.42 13.22 161.3 12.74C162.18 12.26 163.21 12.02 164.39 12.02C165.77 12.02 167.02 12.37 168.14 13.07C169.26 13.77 170.14 14.77 170.78 16.07C171.44 17.37 171.77 18.88 171.77 20.6C171.77 22.32 171.44 23.84 170.78 25.16C170.14 26.46 169.26 27.47 168.14 28.19C167.02 28.89 165.77 29.24 164.39 29.24C163.23 29.24 162.2 29 161.3 28.52C160.42 28.04 159.73 27.42 159.23 26.66V36.98H154.1V12.26H159.23V14.63ZM166.55 20.6C166.55 19.32 166.19 18.32 165.47 17.6C164.77 16.86 163.9 16.49 162.86 16.49C161.84 16.49 160.97 16.86 160.25 17.6C159.55 18.34 159.2 19.35 159.2 20.63C159.2 21.91 159.55 22.92 160.25 23.66C160.97 24.4 161.84 24.77 162.86 24.77C163.88 24.77 164.75 24.4 165.47 23.66C166.19 22.9 166.55 21.88 166.55 20.6ZM177.042 10.52C176.142 10.52 175.402 10.26 174.822 9.74C174.262 9.2 173.982 8.54 173.982 7.76C173.982 6.96 174.262 6.3 174.822 5.78C175.402 5.24 176.142 4.97 177.042 4.97C177.922 4.97 178.642 5.24 179.202 5.78C179.782 6.3 180.072 6.96 180.072 7.76C180.072 8.54 179.782 9.2 179.202 9.74C178.642 10.26 177.922 10.52 177.042 10.52ZM179.592 12.26V29H174.462V12.26H179.592ZM182.289 20.63C182.289 18.89 182.639 17.37 183.339 16.07C184.059 14.77 185.049 13.77 186.309 13.07C187.589 12.37 189.049 12.02 190.689 12.02C192.789 12.02 194.539 12.57 195.939 13.67C197.359 14.77 198.289 16.32 198.729 18.32H193.269C192.809 17.04 191.919 16.4 190.599 16.4C189.659 16.4 188.909 16.77 188.349 17.51C187.789 18.23 187.509 19.27 187.509 20.63C187.509 21.99 187.789 23.04 188.349 23.78C188.909 24.5 189.659 24.86 190.599 24.86C191.919 24.86 192.809 24.22 193.269 22.94H198.729C198.289 24.9 197.359 26.44 195.939 27.56C194.519 28.68 192.769 29.24 190.689 29.24C189.049 29.24 187.589 28.89 186.309 28.19C185.049 27.49 184.059 26.49 183.339 25.19C182.639 23.89 182.289 22.37 182.289 20.63ZM211.703 29L206.603 21.98V29H201.473V6.8H206.603V19.07L211.673 12.26H218.003L211.043 20.66L218.063 29H211.703Z" fill="#173A56"/>
</svg>
